<mxfile host="app.diagrams.net" modified="2021-10-29T18:45:58.253Z" agent="5.0 (Windows NT 10.0; Win64; x64) AppleWebKit/537.36 (KHTML, like Gecko) Chrome/94.0.4606.81 Safari/537.36" etag="IJqdZvd461YybNf8C1Xe" version="15.6.2" type="github">
  <diagram id="KjywGElyxuzmh2zGxyBO" name="Page-1">
    <mxGraphModel dx="1422" dy="705" grid="1" gridSize="10" guides="1" tooltips="1" connect="1" arrows="1" fold="1" page="1" pageScale="1" pageWidth="850" pageHeight="1100" math="0" shadow="0">
      <root>
        <mxCell id="0" />
        <mxCell id="1" parent="0" />
        <mxCell id="KxY7z4cr9jaGJ_HeFhmB-14" value="" style="edgeStyle=orthogonalEdgeStyle;rounded=0;orthogonalLoop=1;jettySize=auto;html=1;fontSize=14;startArrow=classic;startFill=1;endArrow=none;endFill=0;fillColor=#e1d5e7;strokeColor=#9673a6;" edge="1" parent="1" source="KxY7z4cr9jaGJ_HeFhmB-1" target="KxY7z4cr9jaGJ_HeFhmB-13">
          <mxGeometry relative="1" as="geometry" />
        </mxCell>
        <mxCell id="KxY7z4cr9jaGJ_HeFhmB-1" value="Computer" style="rounded=1;whiteSpace=wrap;html=1;fontSize=14;fillColor=#ffe6cc;strokeColor=#d79b00;" vertex="1" parent="1">
          <mxGeometry x="685" y="359" width="120" height="60" as="geometry" />
        </mxCell>
        <mxCell id="KxY7z4cr9jaGJ_HeFhmB-18" value="" style="edgeStyle=orthogonalEdgeStyle;rounded=0;orthogonalLoop=1;jettySize=auto;html=1;fontSize=14;startArrow=classic;startFill=1;endArrow=classic;endFill=1;fillColor=#e1d5e7;strokeColor=#9673a6;" edge="1" parent="1" source="KxY7z4cr9jaGJ_HeFhmB-2" target="KxY7z4cr9jaGJ_HeFhmB-17">
          <mxGeometry relative="1" as="geometry" />
        </mxCell>
        <mxCell id="KxY7z4cr9jaGJ_HeFhmB-2" value="Motion/Light sensor" style="rounded=1;whiteSpace=wrap;html=1;fontSize=14;fillColor=#fff2cc;strokeColor=#d6b656;" vertex="1" parent="1">
          <mxGeometry x="205" y="359" width="120" height="60" as="geometry" />
        </mxCell>
        <mxCell id="KxY7z4cr9jaGJ_HeFhmB-8" style="edgeStyle=orthogonalEdgeStyle;rounded=0;orthogonalLoop=1;jettySize=auto;html=1;fontSize=14;startArrow=classic;startFill=1;endArrow=none;endFill=0;fillColor=#e1d5e7;strokeColor=#9673a6;" edge="1" parent="1" source="KxY7z4cr9jaGJ_HeFhmB-3">
          <mxGeometry relative="1" as="geometry">
            <mxPoint x="395" y="389" as="targetPoint" />
          </mxGeometry>
        </mxCell>
        <mxCell id="KxY7z4cr9jaGJ_HeFhmB-3" value="Servo motor/Solenoid" style="rounded=1;whiteSpace=wrap;html=1;fontSize=14;fillColor=#fff2cc;strokeColor=#d6b656;" vertex="1" parent="1">
          <mxGeometry x="205" y="249" width="120" height="60" as="geometry" />
        </mxCell>
        <mxCell id="KxY7z4cr9jaGJ_HeFhmB-9" style="edgeStyle=orthogonalEdgeStyle;rounded=0;orthogonalLoop=1;jettySize=auto;html=1;fontSize=14;startArrow=classic;startFill=1;endArrow=none;endFill=0;fillColor=#e1d5e7;strokeColor=#9673a6;" edge="1" parent="1" source="KxY7z4cr9jaGJ_HeFhmB-4">
          <mxGeometry relative="1" as="geometry">
            <mxPoint x="395" y="389" as="targetPoint" />
          </mxGeometry>
        </mxCell>
        <mxCell id="KxY7z4cr9jaGJ_HeFhmB-4" value="Thermometer/&lt;br style=&quot;font-size: 14px;&quot;&gt;pyrometer" style="rounded=1;whiteSpace=wrap;html=1;fontSize=14;fillColor=#fff2cc;strokeColor=#d6b656;" vertex="1" parent="1">
          <mxGeometry x="205" y="469" width="120" height="60" as="geometry" />
        </mxCell>
        <mxCell id="KxY7z4cr9jaGJ_HeFhmB-5" value="Attendance system" style="text;html=1;align=center;verticalAlign=middle;resizable=0;points=[];autosize=1;strokeColor=none;fillColor=none;fontSize=24;" vertex="1" parent="1">
          <mxGeometry x="320" y="5" width="220" height="30" as="geometry" />
        </mxCell>
        <mxCell id="KxY7z4cr9jaGJ_HeFhmB-13" value="Camera" style="ellipse;whiteSpace=wrap;html=1;rounded=1;fontSize=14;fillColor=#dae8fc;strokeColor=#6c8ebf;" vertex="1" parent="1">
          <mxGeometry x="685" y="219" width="120" height="60" as="geometry" />
        </mxCell>
        <mxCell id="KxY7z4cr9jaGJ_HeFhmB-19" style="edgeStyle=orthogonalEdgeStyle;rounded=0;orthogonalLoop=1;jettySize=auto;html=1;entryX=0;entryY=0.5;entryDx=0;entryDy=0;fontSize=14;startArrow=classic;startFill=1;endArrow=classic;endFill=1;fillColor=#e1d5e7;strokeColor=#9673a6;" edge="1" parent="1" source="KxY7z4cr9jaGJ_HeFhmB-17" target="KxY7z4cr9jaGJ_HeFhmB-1">
          <mxGeometry relative="1" as="geometry" />
        </mxCell>
        <mxCell id="KxY7z4cr9jaGJ_HeFhmB-17" value="Arduino" style="rounded=1;whiteSpace=wrap;html=1;fontSize=14;fillColor=#e1d5e7;strokeColor=#9673a6;" vertex="1" parent="1">
          <mxGeometry x="425" y="359" width="120" height="60" as="geometry" />
        </mxCell>
        <mxCell id="KxY7z4cr9jaGJ_HeFhmB-20" value="USB" style="text;html=1;align=center;verticalAlign=middle;resizable=0;points=[];autosize=1;fontSize=14;" vertex="1" parent="1">
          <mxGeometry x="595" y="369" width="40" height="20" as="geometry" />
        </mxCell>
        <mxCell id="KxY7z4cr9jaGJ_HeFhmB-21" value="" style="endArrow=none;dashed=1;html=1;dashPattern=1 3;strokeWidth=2;rounded=0;fontSize=14;" edge="1" parent="1">
          <mxGeometry width="50" height="50" relative="1" as="geometry">
            <mxPoint x="45" y="589" as="sourcePoint" />
            <mxPoint x="595" y="589" as="targetPoint" />
          </mxGeometry>
        </mxCell>
        <mxCell id="KxY7z4cr9jaGJ_HeFhmB-23" value="" style="endArrow=none;dashed=1;html=1;dashPattern=1 3;strokeWidth=2;rounded=0;fontSize=14;" edge="1" parent="1">
          <mxGeometry width="50" height="50" relative="1" as="geometry">
            <mxPoint x="45" y="189" as="sourcePoint" />
            <mxPoint x="595" y="189" as="targetPoint" />
          </mxGeometry>
        </mxCell>
        <mxCell id="KxY7z4cr9jaGJ_HeFhmB-24" value="" style="endArrow=none;dashed=1;html=1;dashPattern=1 3;strokeWidth=2;rounded=0;fontSize=14;" edge="1" parent="1">
          <mxGeometry width="50" height="50" relative="1" as="geometry">
            <mxPoint x="595" y="589" as="sourcePoint" />
            <mxPoint x="595" y="189" as="targetPoint" />
          </mxGeometry>
        </mxCell>
        <mxCell id="KxY7z4cr9jaGJ_HeFhmB-41" value="&lt;h1 class=&quot;h1&quot; itemprop=&quot;name&quot; style=&quot;box-sizing: inherit ; font-size: 10px ; margin: 0px 0px 0.5rem ; line-height: 1.1 ; color: rgb(35 , 35 , 35) ; text-transform: uppercase&quot;&gt;&lt;font face=&quot;Helvetica&quot; style=&quot;font-size: 10px&quot;&gt;MLX90614 NON-CONTACT IR&amp;nbsp;&lt;/font&gt;&lt;/h1&gt;&lt;h1 class=&quot;h1&quot; itemprop=&quot;name&quot; style=&quot;box-sizing: inherit ; font-size: 10px ; margin: 0px 0px 0.5rem ; line-height: 1.1 ; color: rgb(35 , 35 , 35) ; text-transform: uppercase&quot;&gt;&lt;font face=&quot;Helvetica&quot; style=&quot;font-size: 10px&quot;&gt;INFRARED TEMPERATURE&amp;nbsp;&lt;/font&gt;&lt;/h1&gt;&lt;h1 class=&quot;h1&quot; itemprop=&quot;name&quot; style=&quot;box-sizing: inherit ; font-size: 10px ; margin: 0px 0px 0.5rem ; line-height: 1.1 ; color: rgb(35 , 35 , 35) ; text-transform: uppercase&quot;&gt;&lt;font face=&quot;Helvetica&quot; style=&quot;font-size: 10px&quot;&gt;SENSOR&lt;span style=&quot;font-weight: normal&quot;&gt; Rs 475&lt;/span&gt;&lt;/font&gt;&lt;/h1&gt;" style="text;html=1;align=center;verticalAlign=middle;resizable=0;points=[];autosize=1;strokeColor=none;fillColor=none;fontSize=10;fontFamily=Tahoma;" vertex="1" parent="1">
          <mxGeometry x="45" y="469" width="160" height="60" as="geometry" />
        </mxCell>
        <mxCell id="KxY7z4cr9jaGJ_HeFhmB-42" value="&lt;h1 class=&quot;h1&quot; itemprop=&quot;name&quot; style=&quot;box-sizing: inherit ; margin: 0px 0px 0.5rem ; line-height: 1.1 ; color: rgb(35 , 35 , 35) ; text-transform: uppercase&quot;&gt;&lt;font style=&quot;font-size: 10px ; background-color: rgb(255 , 255 , 255)&quot;&gt;PIR MOTION SENSOR&amp;nbsp;&lt;/font&gt;&lt;/h1&gt;&lt;p style=&quot;box-sizing: inherit ; margin: 0px 0px 0.5rem ; line-height: 1.1 ; color: rgb(35 , 35 , 35) ; text-transform: uppercase&quot;&gt;&lt;font style=&quot;font-size: 10px ; background-color: rgb(255 , 255 , 255)&quot;&gt;HC-SR501 Rs 85&lt;/font&gt;&lt;/p&gt;" style="text;html=1;align=center;verticalAlign=middle;resizable=0;points=[];autosize=1;strokeColor=none;fillColor=none;fontSize=10;fontFamily=Helvetica;" vertex="1" parent="1">
          <mxGeometry x="85" y="364" width="120" height="50" as="geometry" />
        </mxCell>
        <mxCell id="KxY7z4cr9jaGJ_HeFhmB-44" value="&lt;h1 class=&quot;h1&quot; itemprop=&quot;name&quot; style=&quot;box-sizing: inherit ; margin: 0px 0px 0.5rem ; line-height: 1.1 ; color: rgb(35 , 35 , 35) ; text-transform: uppercase&quot;&gt;&lt;font style=&quot;font-size: 10px&quot;&gt;ARDUINO PRO MINI 5V&amp;nbsp;&lt;/font&gt;&lt;/h1&gt;&lt;h1 class=&quot;h1&quot; itemprop=&quot;name&quot; style=&quot;box-sizing: inherit ; margin: 0px 0px 0.5rem ; line-height: 1.1 ; color: rgb(35 , 35 , 35) ; text-transform: uppercase&quot;&gt;&lt;font style=&quot;font-size: 10px&quot;&gt;16MHZ ATMEGA328P&lt;/font&gt;&lt;/h1&gt;&lt;div&gt;&lt;font style=&quot;font-size: 10px ; font-weight: normal&quot;&gt;Rs 325&lt;/font&gt;&lt;/div&gt;" style="text;html=1;align=center;verticalAlign=middle;resizable=0;points=[];autosize=1;strokeColor=none;fillColor=none;fontSize=10;fontFamily=Helvetica;" vertex="1" parent="1">
          <mxGeometry x="420" y="419" width="130" height="80" as="geometry" />
        </mxCell>
        <mxCell id="KxY7z4cr9jaGJ_HeFhmB-45" value="" style="endArrow=none;dashed=1;html=1;dashPattern=1 3;strokeWidth=2;rounded=0;fontFamily=Helvetica;fontSize=10;" edge="1" parent="1">
          <mxGeometry width="50" height="50" relative="1" as="geometry">
            <mxPoint x="45" y="590" as="sourcePoint" />
            <mxPoint x="45" y="190" as="targetPoint" />
          </mxGeometry>
        </mxCell>
        <mxCell id="KxY7z4cr9jaGJ_HeFhmB-46" value="&lt;h1 class=&quot;h1&quot; itemprop=&quot;name&quot; style=&quot;box-sizing: inherit ; margin: 0px 0px 0.5rem ; font-family: &amp;#34;noto sans&amp;#34; , sans-serif ; line-height: 1.1 ; color: rgb(35 , 35 , 35) ; text-transform: uppercase&quot;&gt;&lt;font style=&quot;font-size: 10px&quot;&gt;SG-92 SERVO MOTOR&lt;/font&gt;&lt;/h1&gt;&lt;div&gt;&lt;span style=&quot;font-weight: normal&quot;&gt;&lt;font style=&quot;font-size: 10px&quot;&gt;Rs 225&lt;/font&gt;&lt;/span&gt;&lt;/div&gt;" style="text;html=1;align=center;verticalAlign=middle;resizable=0;points=[];autosize=1;strokeColor=none;fillColor=none;fontSize=10;fontFamily=Helvetica;" vertex="1" parent="1">
          <mxGeometry x="85" y="254" width="120" height="50" as="geometry" />
        </mxCell>
        <mxCell id="KxY7z4cr9jaGJ_HeFhmB-48" value="&lt;b&gt;HD camera&lt;br&gt;Rs 1000&lt;br&gt;&lt;/b&gt;" style="text;html=1;align=center;verticalAlign=middle;resizable=0;points=[];autosize=1;strokeColor=none;fillColor=none;fontSize=10;fontFamily=Helvetica;" vertex="1" parent="1">
          <mxGeometry x="710" y="189" width="70" height="30" as="geometry" />
        </mxCell>
        <mxCell id="KxY7z4cr9jaGJ_HeFhmB-55" value="List Of Items Required" style="shape=table;startSize=30;container=1;collapsible=0;childLayout=tableLayout;fixedRows=0;rowLines=0;fontStyle=1;align=center;pointerEvents=1;labelBackgroundColor=none;fontFamily=Helvetica;fontSize=10;" vertex="1" parent="1">
          <mxGeometry x="45" y="630" width="275" height="450" as="geometry" />
        </mxCell>
        <mxCell id="KxY7z4cr9jaGJ_HeFhmB-56" value="" style="shape=partialRectangle;html=1;whiteSpace=wrap;collapsible=0;dropTarget=0;pointerEvents=1;fillColor=none;top=0;left=0;bottom=1;right=0;points=[[0,0.5],[1,0.5]];portConstraint=eastwest;labelBackgroundColor=none;fontFamily=Helvetica;fontSize=10;align=center;" vertex="1" parent="KxY7z4cr9jaGJ_HeFhmB-55">
          <mxGeometry y="30" width="275" height="32" as="geometry" />
        </mxCell>
        <mxCell id="KxY7z4cr9jaGJ_HeFhmB-57" value="Items" style="shape=partialRectangle;html=1;whiteSpace=wrap;connectable=0;fillColor=none;top=0;left=0;bottom=0;right=0;overflow=hidden;pointerEvents=1;labelBackgroundColor=none;fontFamily=Helvetica;fontSize=10;align=center;" vertex="1" parent="KxY7z4cr9jaGJ_HeFhmB-56">
          <mxGeometry width="191" height="32" as="geometry">
            <mxRectangle width="191" height="32" as="alternateBounds" />
          </mxGeometry>
        </mxCell>
        <mxCell id="KxY7z4cr9jaGJ_HeFhmB-58" value="Price (Rs)" style="shape=partialRectangle;html=1;whiteSpace=wrap;connectable=0;fillColor=none;top=0;left=0;bottom=0;right=0;align=left;spacingLeft=6;overflow=hidden;pointerEvents=1;labelBackgroundColor=none;fontFamily=Helvetica;fontSize=10;" vertex="1" parent="KxY7z4cr9jaGJ_HeFhmB-56">
          <mxGeometry x="191" width="84" height="32" as="geometry">
            <mxRectangle width="84" height="32" as="alternateBounds" />
          </mxGeometry>
        </mxCell>
        <mxCell id="KxY7z4cr9jaGJ_HeFhmB-59" value="" style="shape=partialRectangle;html=1;whiteSpace=wrap;collapsible=0;dropTarget=0;pointerEvents=1;fillColor=none;top=0;left=0;bottom=0;right=0;points=[[0,0.5],[1,0.5]];portConstraint=eastwest;labelBackgroundColor=none;fontFamily=Helvetica;fontSize=10;align=center;" vertex="1" parent="KxY7z4cr9jaGJ_HeFhmB-55">
          <mxGeometry y="62" width="275" height="33" as="geometry" />
        </mxCell>
        <mxCell id="KxY7z4cr9jaGJ_HeFhmB-60" value="Servo" style="shape=partialRectangle;html=1;whiteSpace=wrap;connectable=0;fillColor=none;top=0;left=0;bottom=0;right=0;overflow=hidden;pointerEvents=1;labelBackgroundColor=none;fontFamily=Helvetica;fontSize=10;align=center;" vertex="1" parent="KxY7z4cr9jaGJ_HeFhmB-59">
          <mxGeometry width="191" height="33" as="geometry">
            <mxRectangle width="191" height="33" as="alternateBounds" />
          </mxGeometry>
        </mxCell>
        <mxCell id="KxY7z4cr9jaGJ_HeFhmB-61" value="225" style="shape=partialRectangle;html=1;whiteSpace=wrap;connectable=0;fillColor=none;top=0;left=0;bottom=0;right=0;align=center;spacingLeft=6;overflow=hidden;pointerEvents=1;labelBackgroundColor=none;fontFamily=Helvetica;fontSize=10;" vertex="1" parent="KxY7z4cr9jaGJ_HeFhmB-59">
          <mxGeometry x="191" width="84" height="33" as="geometry">
            <mxRectangle width="84" height="33" as="alternateBounds" />
          </mxGeometry>
        </mxCell>
        <mxCell id="KxY7z4cr9jaGJ_HeFhmB-62" value="" style="shape=partialRectangle;html=1;whiteSpace=wrap;collapsible=0;dropTarget=0;pointerEvents=1;fillColor=none;top=0;left=0;bottom=0;right=0;points=[[0,0.5],[1,0.5]];portConstraint=eastwest;labelBackgroundColor=none;fontFamily=Helvetica;fontSize=10;align=center;" vertex="1" parent="KxY7z4cr9jaGJ_HeFhmB-55">
          <mxGeometry y="95" width="275" height="32" as="geometry" />
        </mxCell>
        <mxCell id="KxY7z4cr9jaGJ_HeFhmB-63" value="PIR Motion Sensor" style="shape=partialRectangle;html=1;whiteSpace=wrap;connectable=0;fillColor=none;top=0;left=0;bottom=0;right=0;overflow=hidden;pointerEvents=1;labelBackgroundColor=none;fontFamily=Helvetica;fontSize=10;align=center;" vertex="1" parent="KxY7z4cr9jaGJ_HeFhmB-62">
          <mxGeometry width="191" height="32" as="geometry">
            <mxRectangle width="191" height="32" as="alternateBounds" />
          </mxGeometry>
        </mxCell>
        <mxCell id="KxY7z4cr9jaGJ_HeFhmB-64" value="85" style="shape=partialRectangle;html=1;whiteSpace=wrap;connectable=0;fillColor=none;top=0;left=0;bottom=0;right=0;align=center;spacingLeft=6;overflow=hidden;pointerEvents=1;labelBackgroundColor=none;fontFamily=Helvetica;fontSize=10;" vertex="1" parent="KxY7z4cr9jaGJ_HeFhmB-62">
          <mxGeometry x="191" width="84" height="32" as="geometry">
            <mxRectangle width="84" height="32" as="alternateBounds" />
          </mxGeometry>
        </mxCell>
        <mxCell id="KxY7z4cr9jaGJ_HeFhmB-67" style="shape=partialRectangle;html=1;whiteSpace=wrap;collapsible=0;dropTarget=0;pointerEvents=1;fillColor=none;top=0;left=0;bottom=0;right=0;points=[[0,0.5],[1,0.5]];portConstraint=eastwest;labelBackgroundColor=none;fontFamily=Helvetica;fontSize=10;align=center;" vertex="1" parent="KxY7z4cr9jaGJ_HeFhmB-55">
          <mxGeometry y="127" width="275" height="32" as="geometry" />
        </mxCell>
        <mxCell id="KxY7z4cr9jaGJ_HeFhmB-68" value="Thermometer" style="shape=partialRectangle;html=1;whiteSpace=wrap;connectable=0;fillColor=none;top=0;left=0;bottom=0;right=0;overflow=hidden;pointerEvents=1;labelBackgroundColor=none;fontFamily=Helvetica;fontSize=10;align=center;" vertex="1" parent="KxY7z4cr9jaGJ_HeFhmB-67">
          <mxGeometry width="191" height="32" as="geometry">
            <mxRectangle width="191" height="32" as="alternateBounds" />
          </mxGeometry>
        </mxCell>
        <mxCell id="KxY7z4cr9jaGJ_HeFhmB-69" value="475" style="shape=partialRectangle;html=1;whiteSpace=wrap;connectable=0;fillColor=none;top=0;left=0;bottom=0;right=0;align=center;spacingLeft=6;overflow=hidden;pointerEvents=1;labelBackgroundColor=none;fontFamily=Helvetica;fontSize=10;" vertex="1" parent="KxY7z4cr9jaGJ_HeFhmB-67">
          <mxGeometry x="191" width="84" height="32" as="geometry">
            <mxRectangle width="84" height="32" as="alternateBounds" />
          </mxGeometry>
        </mxCell>
        <mxCell id="KxY7z4cr9jaGJ_HeFhmB-70" style="shape=partialRectangle;html=1;whiteSpace=wrap;collapsible=0;dropTarget=0;pointerEvents=1;fillColor=none;top=0;left=0;bottom=0;right=0;points=[[0,0.5],[1,0.5]];portConstraint=eastwest;labelBackgroundColor=none;fontFamily=Helvetica;fontSize=10;align=center;" vertex="1" parent="KxY7z4cr9jaGJ_HeFhmB-55">
          <mxGeometry y="159" width="275" height="33" as="geometry" />
        </mxCell>
        <mxCell id="KxY7z4cr9jaGJ_HeFhmB-71" value="Arduino Mini" style="shape=partialRectangle;html=1;whiteSpace=wrap;connectable=0;fillColor=none;top=0;left=0;bottom=0;right=0;overflow=hidden;pointerEvents=1;labelBackgroundColor=none;fontFamily=Helvetica;fontSize=10;align=center;" vertex="1" parent="KxY7z4cr9jaGJ_HeFhmB-70">
          <mxGeometry width="191" height="33" as="geometry">
            <mxRectangle width="191" height="33" as="alternateBounds" />
          </mxGeometry>
        </mxCell>
        <mxCell id="KxY7z4cr9jaGJ_HeFhmB-72" value="325" style="shape=partialRectangle;html=1;whiteSpace=wrap;connectable=0;fillColor=none;top=0;left=0;bottom=0;right=0;align=center;spacingLeft=6;overflow=hidden;pointerEvents=1;labelBackgroundColor=none;fontFamily=Helvetica;fontSize=10;" vertex="1" parent="KxY7z4cr9jaGJ_HeFhmB-70">
          <mxGeometry x="191" width="84" height="33" as="geometry">
            <mxRectangle width="84" height="33" as="alternateBounds" />
          </mxGeometry>
        </mxCell>
        <mxCell id="KxY7z4cr9jaGJ_HeFhmB-73" style="shape=partialRectangle;html=1;whiteSpace=wrap;collapsible=0;dropTarget=0;pointerEvents=1;fillColor=none;top=0;left=0;bottom=0;right=0;points=[[0,0.5],[1,0.5]];portConstraint=eastwest;labelBackgroundColor=none;fontFamily=Helvetica;fontSize=10;align=center;" vertex="1" parent="KxY7z4cr9jaGJ_HeFhmB-55">
          <mxGeometry y="192" width="275" height="32" as="geometry" />
        </mxCell>
        <mxCell id="KxY7z4cr9jaGJ_HeFhmB-74" value="HD Camera" style="shape=partialRectangle;html=1;whiteSpace=wrap;connectable=0;fillColor=none;top=0;left=0;bottom=0;right=0;overflow=hidden;pointerEvents=1;labelBackgroundColor=none;fontFamily=Helvetica;fontSize=10;align=center;" vertex="1" parent="KxY7z4cr9jaGJ_HeFhmB-73">
          <mxGeometry width="191" height="32" as="geometry">
            <mxRectangle width="191" height="32" as="alternateBounds" />
          </mxGeometry>
        </mxCell>
        <mxCell id="KxY7z4cr9jaGJ_HeFhmB-75" value="1000" style="shape=partialRectangle;html=1;whiteSpace=wrap;connectable=0;fillColor=none;top=0;left=0;bottom=0;right=0;align=center;spacingLeft=6;overflow=hidden;pointerEvents=1;labelBackgroundColor=none;fontFamily=Helvetica;fontSize=10;" vertex="1" parent="KxY7z4cr9jaGJ_HeFhmB-73">
          <mxGeometry x="191" width="84" height="32" as="geometry">
            <mxRectangle width="84" height="32" as="alternateBounds" />
          </mxGeometry>
        </mxCell>
        <mxCell id="KxY7z4cr9jaGJ_HeFhmB-76" style="shape=partialRectangle;html=1;whiteSpace=wrap;collapsible=0;dropTarget=0;pointerEvents=1;fillColor=none;top=0;left=0;bottom=0;right=0;points=[[0,0.5],[1,0.5]];portConstraint=eastwest;labelBackgroundColor=none;fontFamily=Helvetica;fontSize=10;align=center;" vertex="1" parent="KxY7z4cr9jaGJ_HeFhmB-55">
          <mxGeometry y="224" width="275" height="32" as="geometry" />
        </mxCell>
        <mxCell id="KxY7z4cr9jaGJ_HeFhmB-77" value="Sanitizer container" style="shape=partialRectangle;html=1;whiteSpace=wrap;connectable=0;fillColor=none;top=0;left=0;bottom=0;right=0;overflow=hidden;pointerEvents=1;labelBackgroundColor=none;fontFamily=Helvetica;fontSize=10;align=center;" vertex="1" parent="KxY7z4cr9jaGJ_HeFhmB-76">
          <mxGeometry width="191" height="32" as="geometry">
            <mxRectangle width="191" height="32" as="alternateBounds" />
          </mxGeometry>
        </mxCell>
        <mxCell id="KxY7z4cr9jaGJ_HeFhmB-78" value="150" style="shape=partialRectangle;html=1;whiteSpace=wrap;connectable=0;fillColor=none;top=0;left=0;bottom=0;right=0;align=center;spacingLeft=6;overflow=hidden;pointerEvents=1;labelBackgroundColor=none;fontFamily=Helvetica;fontSize=10;" vertex="1" parent="KxY7z4cr9jaGJ_HeFhmB-76">
          <mxGeometry x="191" width="84" height="32" as="geometry">
            <mxRectangle width="84" height="32" as="alternateBounds" />
          </mxGeometry>
        </mxCell>
        <mxCell id="KxY7z4cr9jaGJ_HeFhmB-79" style="shape=partialRectangle;html=1;whiteSpace=wrap;collapsible=0;dropTarget=0;pointerEvents=1;fillColor=none;top=0;left=0;bottom=0;right=0;points=[[0,0.5],[1,0.5]];portConstraint=eastwest;labelBackgroundColor=none;fontFamily=Helvetica;fontSize=10;align=center;" vertex="1" parent="KxY7z4cr9jaGJ_HeFhmB-55">
          <mxGeometry y="256" width="275" height="32" as="geometry" />
        </mxCell>
        <mxCell id="KxY7z4cr9jaGJ_HeFhmB-80" value="Pipes" style="shape=partialRectangle;html=1;whiteSpace=wrap;connectable=0;fillColor=none;top=0;left=0;bottom=0;right=0;overflow=hidden;pointerEvents=1;labelBackgroundColor=none;fontFamily=Helvetica;fontSize=10;align=center;" vertex="1" parent="KxY7z4cr9jaGJ_HeFhmB-79">
          <mxGeometry width="191" height="32" as="geometry">
            <mxRectangle width="191" height="32" as="alternateBounds" />
          </mxGeometry>
        </mxCell>
        <mxCell id="KxY7z4cr9jaGJ_HeFhmB-81" value="125" style="shape=partialRectangle;html=1;whiteSpace=wrap;connectable=0;fillColor=none;top=0;left=0;bottom=0;right=0;align=center;spacingLeft=6;overflow=hidden;pointerEvents=1;labelBackgroundColor=none;fontFamily=Helvetica;fontSize=10;" vertex="1" parent="KxY7z4cr9jaGJ_HeFhmB-79">
          <mxGeometry x="191" width="84" height="32" as="geometry">
            <mxRectangle width="84" height="32" as="alternateBounds" />
          </mxGeometry>
        </mxCell>
        <mxCell id="KxY7z4cr9jaGJ_HeFhmB-82" style="shape=partialRectangle;html=1;whiteSpace=wrap;collapsible=0;dropTarget=0;pointerEvents=1;fillColor=none;top=0;left=0;bottom=0;right=0;points=[[0,0.5],[1,0.5]];portConstraint=eastwest;labelBackgroundColor=none;fontFamily=Helvetica;fontSize=10;align=center;" vertex="1" parent="KxY7z4cr9jaGJ_HeFhmB-55">
          <mxGeometry y="288" width="275" height="33" as="geometry" />
        </mxCell>
        <mxCell id="KxY7z4cr9jaGJ_HeFhmB-83" value="Spray Valve" style="shape=partialRectangle;html=1;whiteSpace=wrap;connectable=0;fillColor=none;top=0;left=0;bottom=0;right=0;overflow=hidden;pointerEvents=1;labelBackgroundColor=none;fontFamily=Helvetica;fontSize=10;align=center;" vertex="1" parent="KxY7z4cr9jaGJ_HeFhmB-82">
          <mxGeometry width="191" height="33" as="geometry">
            <mxRectangle width="191" height="33" as="alternateBounds" />
          </mxGeometry>
        </mxCell>
        <mxCell id="KxY7z4cr9jaGJ_HeFhmB-84" value="65" style="shape=partialRectangle;html=1;whiteSpace=wrap;connectable=0;fillColor=none;top=0;left=0;bottom=0;right=0;align=center;spacingLeft=6;overflow=hidden;pointerEvents=1;labelBackgroundColor=none;fontFamily=Helvetica;fontSize=10;" vertex="1" parent="KxY7z4cr9jaGJ_HeFhmB-82">
          <mxGeometry x="191" width="84" height="33" as="geometry">
            <mxRectangle width="84" height="33" as="alternateBounds" />
          </mxGeometry>
        </mxCell>
        <mxCell id="KxY7z4cr9jaGJ_HeFhmB-85" style="shape=partialRectangle;html=1;whiteSpace=wrap;collapsible=0;dropTarget=0;pointerEvents=1;fillColor=none;top=0;left=0;bottom=0;right=0;points=[[0,0.5],[1,0.5]];portConstraint=eastwest;labelBackgroundColor=none;fontFamily=Helvetica;fontSize=10;align=center;" vertex="1" parent="KxY7z4cr9jaGJ_HeFhmB-55">
          <mxGeometry y="321" width="275" height="32" as="geometry" />
        </mxCell>
        <mxCell id="KxY7z4cr9jaGJ_HeFhmB-86" value="USB cable" style="shape=partialRectangle;html=1;whiteSpace=wrap;connectable=0;fillColor=none;top=0;left=0;bottom=0;right=0;overflow=hidden;pointerEvents=1;labelBackgroundColor=none;fontFamily=Helvetica;fontSize=10;align=center;" vertex="1" parent="KxY7z4cr9jaGJ_HeFhmB-85">
          <mxGeometry width="191" height="32" as="geometry">
            <mxRectangle width="191" height="32" as="alternateBounds" />
          </mxGeometry>
        </mxCell>
        <mxCell id="KxY7z4cr9jaGJ_HeFhmB-87" value="120" style="shape=partialRectangle;html=1;whiteSpace=wrap;connectable=0;fillColor=none;top=0;left=0;bottom=0;right=0;align=center;spacingLeft=6;overflow=hidden;pointerEvents=1;labelBackgroundColor=none;fontFamily=Helvetica;fontSize=10;" vertex="1" parent="KxY7z4cr9jaGJ_HeFhmB-85">
          <mxGeometry x="191" width="84" height="32" as="geometry">
            <mxRectangle width="84" height="32" as="alternateBounds" />
          </mxGeometry>
        </mxCell>
        <mxCell id="KxY7z4cr9jaGJ_HeFhmB-88" style="shape=partialRectangle;html=1;whiteSpace=wrap;collapsible=0;dropTarget=0;pointerEvents=1;fillColor=none;top=0;left=0;bottom=0;right=0;points=[[0,0.5],[1,0.5]];portConstraint=eastwest;labelBackgroundColor=none;fontFamily=Helvetica;fontSize=10;align=center;" vertex="1" parent="KxY7z4cr9jaGJ_HeFhmB-55">
          <mxGeometry y="353" width="275" height="32" as="geometry" />
        </mxCell>
        <mxCell id="KxY7z4cr9jaGJ_HeFhmB-89" value="Cables" style="shape=partialRectangle;html=1;whiteSpace=wrap;connectable=0;fillColor=none;top=0;left=0;bottom=0;right=0;overflow=hidden;pointerEvents=1;labelBackgroundColor=none;fontFamily=Helvetica;fontSize=10;align=center;" vertex="1" parent="KxY7z4cr9jaGJ_HeFhmB-88">
          <mxGeometry width="191" height="32" as="geometry">
            <mxRectangle width="191" height="32" as="alternateBounds" />
          </mxGeometry>
        </mxCell>
        <mxCell id="KxY7z4cr9jaGJ_HeFhmB-90" value="25" style="shape=partialRectangle;html=1;whiteSpace=wrap;connectable=0;fillColor=none;top=0;left=0;bottom=0;right=0;align=center;spacingLeft=6;overflow=hidden;pointerEvents=1;labelBackgroundColor=none;fontFamily=Helvetica;fontSize=10;" vertex="1" parent="KxY7z4cr9jaGJ_HeFhmB-88">
          <mxGeometry x="191" width="84" height="32" as="geometry">
            <mxRectangle width="84" height="32" as="alternateBounds" />
          </mxGeometry>
        </mxCell>
        <mxCell id="KxY7z4cr9jaGJ_HeFhmB-91" style="shape=partialRectangle;html=1;whiteSpace=wrap;collapsible=0;dropTarget=0;pointerEvents=1;fillColor=none;top=0;left=0;bottom=0;right=0;points=[[0,0.5],[1,0.5]];portConstraint=eastwest;labelBackgroundColor=none;fontFamily=Helvetica;fontSize=10;align=center;" vertex="1" parent="KxY7z4cr9jaGJ_HeFhmB-55">
          <mxGeometry y="385" width="275" height="33" as="geometry" />
        </mxCell>
        <mxCell id="KxY7z4cr9jaGJ_HeFhmB-92" value="Miscellaneous" style="shape=partialRectangle;html=1;whiteSpace=wrap;connectable=0;fillColor=none;top=0;left=0;bottom=0;right=0;overflow=hidden;pointerEvents=1;labelBackgroundColor=none;fontFamily=Helvetica;fontSize=10;align=center;" vertex="1" parent="KxY7z4cr9jaGJ_HeFhmB-91">
          <mxGeometry width="191" height="33" as="geometry">
            <mxRectangle width="191" height="33" as="alternateBounds" />
          </mxGeometry>
        </mxCell>
        <mxCell id="KxY7z4cr9jaGJ_HeFhmB-93" value="150" style="shape=partialRectangle;html=1;whiteSpace=wrap;connectable=0;fillColor=none;top=0;left=0;bottom=0;right=0;align=center;spacingLeft=6;overflow=hidden;pointerEvents=1;labelBackgroundColor=none;fontFamily=Helvetica;fontSize=10;" vertex="1" parent="KxY7z4cr9jaGJ_HeFhmB-91">
          <mxGeometry x="191" width="84" height="33" as="geometry">
            <mxRectangle width="84" height="33" as="alternateBounds" />
          </mxGeometry>
        </mxCell>
        <mxCell id="KxY7z4cr9jaGJ_HeFhmB-94" style="shape=partialRectangle;html=1;whiteSpace=wrap;collapsible=0;dropTarget=0;pointerEvents=1;fillColor=none;top=0;left=0;bottom=0;right=0;points=[[0,0.5],[1,0.5]];portConstraint=eastwest;labelBackgroundColor=none;fontFamily=Helvetica;fontSize=10;align=center;" vertex="1" parent="KxY7z4cr9jaGJ_HeFhmB-55">
          <mxGeometry y="418" width="275" height="32" as="geometry" />
        </mxCell>
        <mxCell id="KxY7z4cr9jaGJ_HeFhmB-95" value="Total&amp;nbsp; &amp;nbsp;" style="shape=partialRectangle;html=1;whiteSpace=wrap;connectable=0;fillColor=none;top=1;left=0;bottom=0;right=0;overflow=hidden;pointerEvents=1;labelBackgroundColor=none;fontFamily=Helvetica;fontSize=10;align=right;" vertex="1" parent="KxY7z4cr9jaGJ_HeFhmB-94">
          <mxGeometry width="191" height="32" as="geometry">
            <mxRectangle width="191" height="32" as="alternateBounds" />
          </mxGeometry>
        </mxCell>
        <mxCell id="KxY7z4cr9jaGJ_HeFhmB-96" value="2750" style="shape=partialRectangle;html=1;whiteSpace=wrap;connectable=0;fillColor=none;top=1;left=0;bottom=0;right=0;align=center;spacingLeft=6;overflow=hidden;pointerEvents=1;labelBackgroundColor=none;fontFamily=Helvetica;fontSize=10;" vertex="1" parent="KxY7z4cr9jaGJ_HeFhmB-94">
          <mxGeometry x="191" width="84" height="32" as="geometry">
            <mxRectangle width="84" height="32" as="alternateBounds" />
          </mxGeometry>
        </mxCell>
      </root>
    </mxGraphModel>
  </diagram>
</mxfile>
